PathFileType	4	(X/Y/Z)	c:/Users/goper/Files/vsCode/490R/osim_files/A04/A04_Slow_05.trc
DataRate	CameraRate	NumFrames	NumMarkers	Units                	OrigDataRate	OrigDataStartFrame	OrigNumFrames
120.00	120.00	9	36	mm	120.0	976	1300
                Frame#	Time	LPSIS			LASIS			LTH1			LTH2			LTH3			LTH4			LLFE			LMFE			LSH1			LSH2			LSH3			LSH4			LLMAL			LMMAL			LCAL			LMTP5			LTOE			LMTP1			RPSIS			RASIS			RTH1			RTH2			RTH3			RTH4			RLFE			RMFE			RSH1			RSH2			RSH3			RSH4			RLMAL			RMMAL			RCAL			RMTP1			RTOE			RMTP5		
		X1	Y1	Z1	X2	Y2	Z2	X3	Y3	Z3	X4	Y4	Z4	X5	Y5	Z5	X6	Y6	Z6	X7	Y7	Z7	X8	Y8	Z8	X9	Y9	Z9	X10	Y10	Z10	X11	Y11	Z11	X12	Y12	Z12	X13	Y13	Z13	X14	Y14	Z14	X15	Y15	Z15	X16	Y16	Z16	X17	Y17	Z17	X18	Y18	Z18	X19	Y19	Z19	X20	Y20	Z20	X21	Y21	Z21	X22	Y22	Z22	X23	Y23	Z23	X24	Y24	Z24	X25	Y25	Z25	X26	Y26	Z26	X27	Y27	Z27	X28	Y28	Z28	X29	Y29	Z29	X30	Y30	Z30	X31	Y31	Z31	X32	Y32	Z32	X33	Y33	Z33	X34	Y34	Z34	X35	Y35	Z35	X36	Y36	Z36

976	8.12500	-1915.47717	1059.49170	423.11160	-2142.55420	1016.53394	497.28998	-2053.82568	697.52100	516.39020	-2058.02588	653.19769	513.51868	-2114.88184	698.75995	513.75311	-2112.18164	654.77667	511.30023	-2077.93677	529.28192	500.02527	-2099.92358	537.20221	362.51517	-2042.05042	427.52292	494.37936	-2048.80322	384.71414	490.51517	-2104.11768	429.27478	486.35236	-2100.51367	386.37885	481.27576	-2018.79797	106.75607	429.42410	-2044.44910	112.85513	347.35046	-1960.08594	66.20295	371.60468	-2160.54395	62.16531	469.06482	-2211.14087	79.65448	410.58090	-2195.21582	63.39773	365.16766	-1908.85706	1046.12109	316.82510	-2127.26343	1029.96008	211.98366	-2153.71582	737.67944	154.23351	-2177.01660	702.73523	152.24623	-2207.72437	767.60522	152.20865	-2226.46460	723.75354	153.11589	-2276.69824	591.16455	167.01340	-2286.01270	584.00671	289.04883	-2124.58276	412.52567	179.40709	-2105.16357	370.04440	187.31783	-2175.56885	380.87451	172.07001	-2148.95312	343.41504	178.93755	-2025.92297	191.60370	182.00012	-2058.13696	187.77454	314.06046	-1944.08032	175.93135	261.26093	-2145.74097	76.81784	290.34195	-2174.91187	86.99934	244.72621	-2130.83545	76.37074	172.47954
977	8.13333	-1922.17261	1059.64551	423.08432	-2149.20557	1016.25665	497.23090	-2058.77979	697.71582	516.39209	-2062.65649	653.40137	513.46191	-2119.74487	698.42969	513.57123	-2116.70679	654.62384	511.03250	-2081.51099	529.22266	499.83704	-2103.26978	536.96539	362.25739	-2044.64990	427.77893	494.23505	-2051.09985	384.91238	490.36838	-2106.83179	429.07986	486.14841	-2102.90405	386.10159	481.07037	-2018.88647	106.86015	429.45087	-2044.50024	112.90697	347.31885	-1960.14661	66.33413	371.60880	-2160.56616	62.10853	469.01657	-2211.19434	79.50918	410.55093	-2195.32495	63.31803	365.16467	-1915.34705	1046.47925	316.73190	-2132.83228	1030.08069	212.03297	-2163.62280	739.59619	153.74974	-2187.71265	704.74548	152.23856	-2217.11304	770.19788	152.16913	-2236.45166	726.66101	153.21429	-2287.70435	594.50305	167.30690	-2295.97754	587.08759	289.27930	-2142.22314	409.94644	178.82159	-2124.49976	366.41287	186.51497	-2196.47095	381.56763	173.33258	-2169.29028	341.47821	178.48987	-2052.81421	184.58920	181.05466	-2084.32715	182.55646	313.22348	-1971.47705	165.87982	259.55432	-2176.34619	74.15941	290.35617	-2205.78979	86.80351	244.85416	-2162.62964	74.10198	172.21753
978	8.14167	-1928.87610	1059.76367	422.99191	-2156.09644	1015.99390	497.07932	-2063.51025	697.80322	516.21613	-2067.39624	653.49731	513.31964	-2125.15356	698.53790	513.39374	-2121.36450	654.27808	510.71478	-2084.90088	529.11755	499.57513	-2106.55396	536.65051	361.93280	-2047.43665	427.92441	494.07550	-2053.54150	385.00818	490.20322	-2109.63062	428.89249	485.94141	-2105.40259	385.92108	480.87656	-2018.97742	107.05093	429.48376	-2044.52075	112.94214	347.37268	-1960.26782	66.44878	371.62512	-2160.88989	62.07742	469.04944	-2211.34717	79.29283	410.53140	-2195.41602	63.09547	365.12402	-1921.97998	1046.78516	316.60535	-2139.37939	1030.59387	211.99905	-2172.73438	741.42297	153.39122	-2197.48535	706.78607	152.09000	-2226.14819	772.63971	152.13420	-2245.99951	729.28809	153.26852	-2298.43018	597.55176	167.53972	-2307.33887	590.68079	289.81940	-2159.87793	407.12991	178.13754	-2143.91455	362.83566	185.87981	-2215.42944	380.20462	173.19020	-2189.53638	339.59653	178.01419	-2079.79858	178.19719	180.08649	-2110.64087	177.51164	312.46283	-1998.32520	156.32402	258.25183	-2207.64819	74.00980	290.00745	-2236.36255	86.79125	244.78119	-2194.04199	72.39449	171.94940
979	8.15000	-1935.61731	1059.82104	422.85696	-2162.83716	1015.54987	496.80692	-2068.70337	697.94293	516.19318	-2072.08374	653.52698	513.28595	-2130.04712	698.17419	512.93280	-2126.01343	653.91199	510.25223	-2088.32031	529.07147	499.20590	-2109.98096	536.27222	361.58920	-2050.10400	428.08481	493.79633	-2055.91333	385.11340	489.96313	-2112.08203	428.51282	485.64755	-2107.66699	385.69400	480.57474	-2019.20227	107.16240	429.47290	-2044.73010	113.00066	347.32458	-1960.54150	66.57388	371.62543	-2160.96240	62.01567	469.00809	-2211.54297	79.12144	410.46533	-2196.03809	63.60658	365.78046	-1928.41785	1046.98254	316.50070	-2145.37964	1030.89722	211.57928	-2181.85913	742.84296	153.35863	-2206.74316	708.56757	152.06744	-2234.90308	774.71295	152.09192	-2255.06372	731.50598	153.28986	-2307.91748	600.54907	167.45949	-2312.99902	591.51270	289.21475	-2177.24341	404.31860	177.65965	-2163.11328	359.35394	185.25374	-2233.52051	379.50961	172.87325	-2209.60327	337.81039	177.57422	-2106.97217	172.45000	179.15802	-2137.03125	172.81784	311.60519	-2026.30371	146.82182	257.04269	-2238.58008	73.07833	289.98633	-2267.25781	87.81294	244.52890	-2225.66040	71.30106	171.50526
980	8.15833	-1942.31860	1059.81750	422.74203	-2169.60474	1015.10693	496.48267	-2073.61035	698.01801	516.07037	-2076.71484	653.49469	513.09100	-2134.77588	697.64240	512.31683	-2130.67432	653.65704	509.83185	-2091.63501	528.95612	498.93475	-2113.31738	535.95068	361.25394	-2052.72998	428.23343	493.54095	-2058.29907	385.26257	489.73532	-2114.82568	428.22336	485.32159	-2109.97827	385.50024	480.39661	-2019.43738	107.29908	429.47183	-2045.14514	113.01669	347.25027	-1960.59192	66.80088	371.61923	-2161.03687	61.96720	468.94363	-2211.71826	78.95692	410.39786	-2196.23340	63.42712	365.45724	-1934.98499	1047.17297	316.30707	-2152.07129	1031.12769	211.50447	-2190.28296	744.22198	153.57005	-2215.45312	710.03363	152.20786	-2242.94922	776.37805	152.08156	-2263.51270	733.40247	153.23734	-2318.57520	602.71429	167.90930	-2322.15210	593.54211	289.32050	-2194.42334	401.57333	177.09683	-2182.21606	355.90598	184.70708	-2251.02734	378.73145	172.51898	-2229.47729	336.09778	177.18851	-2134.01440	166.87830	178.31236	-2163.69946	168.40399	310.89053	-2054.57178	137.68513	256.05295	-2269.48218	73.57071	289.16818	-2297.53442	88.89468	243.99538	-2256.92212	70.80318	171.00540
981	8.16667	-1949.13452	1059.74329	422.58624	-2176.43750	1014.69214	496.11932	-2078.30054	697.97076	515.77533	-2081.48291	653.48975	512.90814	-2139.46655	697.27002	511.82108	-2135.28345	653.26263	509.47852	-2094.89624	528.84546	498.56519	-2116.46362	535.63306	360.88525	-2055.24951	428.39606	493.20337	-2060.51733	385.31177	489.52307	-2117.48218	428.08011	485.05429	-2112.30859	385.16757	480.14520	-2019.67285	107.41649	429.48312	-2045.18835	113.03383	347.27151	-1960.70764	66.99117	371.62195	-2161.11060	61.88603	468.93173	-2211.86060	78.76987	410.39114	-2196.24976	63.29692	365.42413	-1941.53491	1047.22705	316.20895	-2158.23950	1031.10938	211.77336	-2197.73438	745.32983	153.74751	-2223.66846	711.16443	152.42590	-2250.64526	777.67480	152.11868	-2271.55029	734.92389	153.21484	-2328.14966	604.82690	168.17595	-2330.68188	595.14697	289.37146	-2211.11182	398.56964	176.47720	-2201.15527	352.55429	184.23373	-2269.45996	378.03336	171.80008	-2249.42285	334.54016	176.92987	-2160.75171	161.38942	177.57831	-2190.60791	164.28218	310.30875	-2082.72705	129.05145	255.17148	-2300.16138	73.76958	289.04007	-2327.52197	90.44202	243.39966	-2287.73877	70.91544	170.25990
982	8.17500	-1955.84192	1059.64148	422.39444	-2183.22119	1014.27075	495.63901	-2083.29370	697.98010	515.64551	-2085.85327	653.55756	512.66309	-2144.35107	696.87561	511.32211	-2139.58228	652.84784	508.90158	-2098.02173	528.72382	498.17499	-2119.68896	535.46820	360.22293	-2057.80981	428.54169	492.95953	-2062.73608	385.36688	489.28653	-2119.76880	427.72659	484.72668	-2114.37012	384.85361	479.76474	-2019.89551	107.46130	429.41901	-2045.48157	113.08495	347.14725	-1960.78613	67.16217	371.60434	-2161.14209	61.81669	468.83624	-2211.91577	78.57012	410.30777	-2196.32178	63.13027	365.36896	-1948.48804	1047.15601	316.04419	-2164.66455	1031.08997	211.35429	-2205.81128	745.76251	154.35651	-2231.36401	712.00232	152.88560	-2257.95532	778.59503	152.08064	-2279.18066	735.99115	153.13506	-2337.25537	606.50330	168.51912	-2339.44604	596.58563	289.49780	-2228.03076	395.84750	176.06136	-2219.66992	349.33319	183.72929	-2286.68652	377.61435	171.39034	-2268.97412	333.07156	176.31502	-2187.33472	156.78291	176.84404	-2217.26636	160.57344	309.58066	-2110.88452	120.99976	254.41299	-2330.43506	74.39262	287.82620	-2357.23315	92.69272	242.60344	-2318.20557	71.63779	169.36388
983	8.18333	-1962.64990	1059.52747	422.12360	-2188.63232	1013.13245	494.74561	-2087.86133	697.98547	515.24371	-2090.19580	653.45410	512.30096	-2148.92407	696.35443	510.79337	-2144.02661	652.46716	508.37952	-2101.08765	528.61615	497.76776	-2122.98462	535.05945	359.98990	-2060.25122	428.59866	492.68030	-2064.90112	385.50479	488.95395	-2122.21094	427.43646	484.38626	-2116.58447	384.69577	479.45667	-2020.11389	107.63055	429.39386	-2045.71179	113.15579	347.08359	-1960.83813	67.38264	371.57968	-2161.28882	61.77284	468.80048	-2212.04370	78.40842	410.24619	-2196.40234	62.92571	365.29459	-1954.80530	1047.19666	315.70303	-2171.09033	1030.86206	210.92439	-2212.97681	746.05249	154.97971	-2238.26709	712.80109	152.99896	-2265.02686	779.13306	151.95560	-2286.37183	736.60980	153.03918	-2345.95410	607.83398	168.77406	-2349.69531	598.30835	289.89679	-2244.78906	393.11728	175.81212	-2238.21680	346.27554	183.39772	-2303.89331	377.27057	171.01335	-2288.09326	331.68683	175.94513	-2214.47485	152.31735	176.22212	-2243.78174	157.24844	308.93906	-2139.17505	113.41863	253.72517	-2360.40942	75.76057	286.72354	-2386.33911	95.13663	241.48100	-2348.60400	72.82608	168.25554
984	8.19167	-1969.47388	1059.44690	421.91049	-2197.42480	1013.36670	494.12140	-2092.73730	697.99786	515.05713	-2094.53003	653.54034	511.90979	-2154.05200	696.14746	510.45914	-2148.39062	652.06433	507.93921	-2104.11890	528.53357	497.38947	-2125.64209	534.52765	359.64355	-2062.53271	428.72260	492.36771	-2067.00977	385.58453	488.66449	-2124.62744	427.20007	484.07965	-2118.77344	384.57733	479.19870	-2020.28857	107.87392	429.39639	-2045.80090	113.22740	347.08411	-1961.01392	67.59538	371.56726	-2161.16846	61.70752	468.69504	-2212.22437	78.33372	410.17963	-2196.50928	62.73801	365.26938	-1961.49695	1047.13354	315.48251	-2177.80371	1030.64758	210.28000	-2220.79102	745.69257	155.89378	-2245.25635	712.79309	153.65329	-2271.68506	779.29169	151.79948	-2293.11401	736.81372	152.95143	-2354.20557	608.79144	169.15685	-2358.38159	599.24823	290.04016	-2260.50049	390.58069	175.70966	-2256.59155	343.27542	183.11136	-2320.66309	376.96167	170.71965	-2306.23193	330.59061	175.45624	-2240.54321	148.51180	175.59149	-2270.10938	153.96449	308.33505	-2167.41504	106.31977	253.16405	-2390.26318	77.87964	285.59622	-2414.97803	98.35296	240.34409	-2377.67725	74.72482	166.99736
